<?xml version="1.0" encoding="utf-8"?>
<!-- Generator: Adobe Illustrator 25.0.1, SVG Export Plug-In . SVG Version: 6.00 Build 0)  -->
<svg version="1.1" id="Layer_1" xmlns="http://www.w3.org/2000/svg" xmlns:xlink="http://www.w3.org/1999/xlink" x="0px" y="0px"
	 viewBox="0 0 300 201.11" style="enable-background:new 0 0 300 201.11;" xml:space="preserve">
<style type="text/css">
	.st0{fill:#6AB341;}
	.st1{fill:#3A6229;}
	.st2{fill:none;}
	.st3{font-family:'Poppins-Regular';}
	.st4{font-size:20.4506px;}
	.st5{letter-spacing:6;}
	.st6{fill:#FFFFFF;}
</style>
<g>
	<ellipse transform="matrix(0.866 -0.5 0.5 0.866 2.6459 52.634)" class="st1" cx="99.54" cy="21.38" rx="1.6" ry="4.28"/>
	<ellipse transform="matrix(0.866 -0.5 0.5 0.866 3.4799 56.4717)" class="st1" cx="107.12" cy="21.74" rx="1.6" ry="4.28"/>
	<ellipse transform="matrix(0.866 -0.5 0.5 0.866 4.7866 60.2606)" class="st1" cx="114.84" cy="21.2" rx="1.79" ry="4.06"/>
	<ellipse transform="matrix(0.866 -0.5 0.5 0.866 0.6043 65.3744)" class="st1" cx="122.29" cy="31.56" rx="2.25" ry="4.06"/>
	<ellipse transform="matrix(0.866 -0.5 0.5 0.866 -4.4088 66.5719)" class="st1" cx="122.02" cy="41.51" rx="2.25" ry="4.06"/>
	<ellipse transform="matrix(0.866 -0.5 0.5 0.866 -16.4046 70.4274)" class="st1" cx="123.22" cy="65.83" rx="2.25" ry="4.49"/>
	<ellipse transform="matrix(0.866 -0.5 0.5 0.866 -10.2355 68.3226)" class="st1" cx="122.37" cy="53.26" rx="2.25" ry="4.06"/>
	<ellipse transform="matrix(0.866 -0.5 0.5 0.866 6.3519 64.1987)" class="st1" cx="122.97" cy="20.25" rx="2.25" ry="4.06"/>
	
		<ellipse transform="matrix(0.984 -0.1784 0.1784 0.984 -1.1878 23.6588)" class="st1" cx="130.95" cy="18.43" rx="2.25" ry="4.06"/>
	<ellipse class="st1" cx="139.36" cy="16.55" rx="2.57" ry="4.06"/>
	
		<ellipse transform="matrix(0.082 -0.9966 0.9966 0.082 120.9964 159.955)" class="st1" cx="147.32" cy="14.3" rx="4.15" ry="2.76"/>
	
		<ellipse transform="matrix(0.171 -0.9853 0.9853 0.171 117.501 162.7742)" class="st1" cx="155.48" cy="11.56" rx="4.57" ry="2.76"/>
	<ellipse transform="matrix(0.171 -0.9853 0.9853 0.171 100.2534 171.4285)" class="st1" cx="152" cy="26.14" rx="4.57" ry="2.76"/>
	
		<ellipse transform="matrix(0.9964 -0.0844 0.0844 0.9964 -2.8513 12.8988)" class="st1" cx="151.13" cy="40.17" rx="2.76" ry="4.57"/>
	
		<ellipse transform="matrix(0.9185 -0.3954 0.3954 0.9185 -8.8002 64.398)" class="st1" cx="151.85" cy="53.55" rx="2.76" ry="4.57"/>
	
		<ellipse transform="matrix(0.9297 -0.3683 0.3683 0.9297 -14.1549 61.7626)" class="st1" cx="154.7" cy="67.96" rx="2.76" ry="5.17"/>
	<ellipse transform="matrix(0.866 -0.5 0.5 0.866 -12.0179 90.0501)" class="st1" cx="162.03" cy="67.45" rx="2.76" ry="5.17"/>
	<ellipse transform="matrix(0.866 -0.5 0.5 0.866 -10.5536 93.1943)" class="st1" cx="168.63" cy="66.29" rx="2.76" ry="5.17"/>
	
		<ellipse transform="matrix(0.9485 -0.3168 0.3168 0.9485 -8.1445 54.9232)" class="st1" cx="164.86" cy="52.51" rx="2.76" ry="5.17"/>
	
		<ellipse transform="matrix(0.9194 -0.3934 0.3934 0.9194 -6.5895 71.6245)" class="st1" cx="171.44" cy="51.89" rx="2.39" ry="5.17"/>
	
		<ellipse transform="matrix(0.9485 -0.3168 0.3168 0.9485 -8.6879 53.031)" class="st1" cx="158.76" cy="53.24" rx="2.76" ry="5.17"/>
	
		<ellipse transform="matrix(0.9929 -0.1193 0.1193 0.9929 -3.5508 19.107)" class="st1" cx="157.8" cy="39.21" rx="2.76" ry="4.99"/>
	
		<ellipse transform="matrix(0.9965 -0.0833 0.0833 0.9965 -2.6548 13.8064)" class="st1" cx="164.04" cy="38.7" rx="2.76" ry="4.99"/>
	
		<ellipse transform="matrix(0.9965 -0.0833 0.0833 0.9965 -2.5971 14.3186)" class="st1" cx="170.2" cy="38.27" rx="2.46" ry="4.44"/>
	
		<ellipse transform="matrix(0.9965 -0.0833 0.0833 0.9965 -2.5593 14.7893)" class="st1" cx="175.86" cy="38.05" rx="2.46" ry="4.44"/>
	
		<ellipse transform="matrix(0.9965 -0.0833 0.0833 0.9965 -2.5847 15.196)" class="st1" cx="180.72" cy="38.56" rx="1.77" ry="4.44"/>
	
		<ellipse transform="matrix(0.9965 -0.0833 0.0833 0.9965 -2.6519 15.9072)" class="st1" cx="189.2" cy="39.72" rx="1.38" ry="3.99"/>
	
		<ellipse transform="matrix(0.9965 -0.0833 0.0833 0.9965 -2.6111 15.5786)" class="st1" cx="185.28" cy="39.06" rx="1.38" ry="4.41"/>
	
		<ellipse transform="matrix(0.9317 -0.3632 0.3632 0.9317 -6.1971 69.5374)" class="st1" cx="181.8" cy="51.25" rx="1.38" ry="4.41"/>
	
		<ellipse transform="matrix(0.9317 -0.3632 0.3632 0.9317 -6.6541 67.687)" class="st1" cx="176.65" cy="51.54" rx="1.7" ry="4.41"/>
	<ellipse transform="matrix(0.866 -0.5 0.5 0.866 -9.2032 96.1897)" class="st1" cx="174.89" cy="65.27" rx="2.01" ry="4.6"/>
	<ellipse transform="matrix(0.866 -0.5 0.5 0.866 -7.9475 98.8457)" class="st1" cx="180.47" cy="64.25" rx="2.01" ry="4.6"/>
	<ellipse transform="matrix(0.866 -0.5 0.5 0.866 -6.7369 101.6848)" class="st1" cx="186.38" cy="63.41" rx="1.75" ry="4.8"/>
	
		<ellipse transform="matrix(0.8437 -0.5368 0.5368 0.8437 -3.7559 112.8781)" class="st1" cx="191.98" cy="62.89" rx="1.42" ry="4.8"/>
	<ellipse transform="matrix(0.7725 -0.635 0.635 0.7725 5.8149 138.899)" class="st1" cx="196.76" cy="61.33" rx="1.42" ry="4.46"/>
	
		<ellipse transform="matrix(0.9317 -0.3632 0.3632 0.9317 -5.8965 71.2809)" class="st1" cx="186.59" cy="51.32" rx="1.41" ry="4.41"/>
	
		<ellipse transform="matrix(0.9098 -0.4151 0.4151 0.9098 -4.0213 83.8482)" class="st1" cx="190.87" cy="51.17" rx="1.41" ry="4.2"/>
	
		<ellipse transform="matrix(0.1858 -0.9826 0.9826 0.1858 105.2506 176.5771)" class="st1" cx="159.18" cy="24.78" rx="4.99" ry="2.76"/>
	
		<ellipse transform="matrix(0.1858 -0.9826 0.9826 0.1858 111.7026 182.7683)" class="st1" cx="166.14" cy="23.98" rx="4.99" ry="2.76"/>
	
		<ellipse transform="matrix(0.4179 -0.9085 0.9085 0.4179 86.1954 154.0727)" class="st1" cx="163.33" cy="9.77" rx="5.45" ry="2.76"/>
	
		<ellipse transform="matrix(0.4179 -0.9085 0.9085 0.4179 92.3778 160.2409)" class="st1" cx="171.24" cy="8.03" rx="5.45" ry="2.76"/>
	
		<ellipse transform="matrix(0.4179 -0.9085 0.9085 0.4179 97.3187 166.647)" class="st1" cx="178.71" cy="7.38" rx="5.45" ry="2.76"/>
	
		<ellipse transform="matrix(0.4179 -0.9085 0.9085 0.4179 101.0232 173.0089)" class="st1" cx="185.52" cy="7.67" rx="5.45" ry="2.29"/>
	
		<ellipse transform="matrix(0.4179 -0.9085 0.9085 0.4179 102.3445 179.1321)" class="st1" cx="190.96" cy="9.7" rx="5.45" ry="2.29"/>
	
		<ellipse transform="matrix(0.4179 -0.9085 0.9085 0.4179 102.1236 185.3141)" class="st1" cx="195.67" cy="12.96" rx="5.45" ry="2.29"/>
	
		<ellipse transform="matrix(0.5391 -0.8422 0.8422 0.5391 77.3506 175.618)" class="st1" cx="199.13" cy="17.14" rx="5.25" ry="1.64"/>
	
		<ellipse transform="matrix(0.2399 -0.9708 0.9708 0.2399 108.6547 185.4466)" class="st1" cx="172.76" cy="23.33" rx="5.25" ry="2.3"/>
	
		<ellipse transform="matrix(0.2399 -0.9708 0.9708 0.2399 113.3306 190.9838)" class="st1" cx="178.63" cy="23.12" rx="4.86" ry="2.3"/>
	
		<ellipse transform="matrix(0.3109 -0.9504 0.9504 0.3109 104.3524 191.0372)" class="st1" cx="183.93" cy="23.55" rx="4.86" ry="1.85"/>
	
		<ellipse transform="matrix(0.2863 -0.9581 0.9581 0.2863 110.3759 198.4791)" class="st1" cx="188.42" cy="25.15" rx="4.52" ry="1.85"/>
	
		<ellipse transform="matrix(0.3151 -0.949 0.949 0.3151 104.9893 201.728)" class="st1" cx="192.27" cy="28.12" rx="4.03" ry="1.54"/>
	
		<ellipse transform="matrix(0.082 -0.9966 0.9966 0.082 105.2838 170.0198)" class="st1" cx="144.93" cy="27.86" rx="4.15" ry="2.76"/>
	
		<ellipse transform="matrix(0.9865 -0.164 0.164 0.9865 -4.7564 24.2132)" class="st1" cx="144.28" cy="40.92" rx="2.76" ry="4.15"/>
	
		<ellipse transform="matrix(0.953 -0.3029 0.3029 0.953 -9.4653 46.4021)" class="st1" cx="144.87" cy="53.72" rx="2.76" ry="4.19"/>
	
		<ellipse transform="matrix(0.9758 -0.2186 0.2186 0.9758 -11.3738 33.901)" class="st1" cx="147.51" cy="68.35" rx="2.62" ry="4.58"/>
	
		<ellipse transform="matrix(0.9668 -0.2555 0.2555 0.9668 -6.0024 36.3397)" class="st1" cx="136.9" cy="41.28" rx="2.57" ry="4.06"/>
	
		<ellipse transform="matrix(0.8994 -0.4371 0.4371 0.8994 -9.6254 65.601)" class="st1" cx="137.71" cy="53.71" rx="2.57" ry="4.26"/>
	
		<ellipse transform="matrix(0.8994 -0.4371 0.4371 0.8994 -15.7343 68.0353)" class="st1" cx="139.94" cy="68.2" rx="2.46" ry="4.57"/>
	
		<ellipse transform="matrix(0.9923 -0.1237 0.1237 0.9923 -2.5539 17.19)" class="st1" cx="137.19" cy="29.17" rx="2.57" ry="4.06"/>
	
		<ellipse transform="matrix(0.9192 -0.3939 0.3939 0.9192 -1.4677 53.5747)" class="st1" cx="129.79" cy="30.36" rx="2.25" ry="4.06"/>
	
		<ellipse transform="matrix(0.9321 -0.3623 0.3623 0.9321 -6.2592 49.7911)" class="st1" cx="129.64" cy="41.59" rx="2.25" ry="4.06"/>
	
		<ellipse transform="matrix(0.8457 -0.5337 0.5337 0.8457 -15.621 80.5969)" class="st1" cx="131.57" cy="67.31" rx="2.25" ry="4.29"/>
	
		<ellipse transform="matrix(0.8457 -0.5337 0.5337 0.8457 -8.6618 77.6884)" class="st1" cx="130.02" cy="53.82" rx="2.25" ry="4.29"/>
	<ellipse transform="matrix(0.866 -0.5 0.5 0.866 -5.3537 62.7736)" class="st1" cx="114.46" cy="41.38" rx="1.79" ry="4.06"/>
	<ellipse transform="matrix(0.866 -0.5 0.5 0.866 -10.856 64.3208)" class="st1" cx="114.6" cy="52.42" rx="1.79" ry="4.06"/>
	<ellipse transform="matrix(0.866 -0.5 0.5 0.866 -16.7614 66.2675)" class="st1" cx="115.28" cy="64.41" rx="1.79" ry="4.06"/>
	<ellipse transform="matrix(0.866 -0.5 0.5 0.866 -0.4613 61.5064)" class="st1" cx="114.54" cy="31.61" rx="1.79" ry="4.06"/>
	<ellipse transform="matrix(0.866 -0.5 0.5 0.866 -1.466 57.7387)" class="st1" cx="107.01" cy="31.6" rx="1.6" ry="4.28"/>
	<ellipse transform="matrix(0.866 -0.5 0.5 0.866 -6.2355 58.939)" class="st1" cx="106.86" cy="41.1" rx="1.6" ry="4.28"/>
	<ellipse transform="matrix(0.866 -0.5 0.5 0.866 -11.406 60.3827)" class="st1" cx="106.97" cy="51.48" rx="1.6" ry="4.28"/>
	<ellipse transform="matrix(0.866 -0.5 0.5 0.866 -16.7579 61.875)" class="st1" cx="107.08" cy="62.21" rx="1.6" ry="4.28"/>
	<ellipse transform="matrix(0.866 -0.5 0.5 0.866 -2.1766 53.9262)" class="st1" cx="99.54" cy="31.02" rx="1.6" ry="4.28"/>
	<ellipse transform="matrix(0.866 -0.5 0.5 0.866 -6.8904 55.1893)" class="st1" cx="99.54" cy="40.45" rx="1.6" ry="4.28"/>
	<ellipse transform="matrix(0.866 -0.5 0.5 0.866 -11.8713 56.5433)" class="st1" cx="99.58" cy="50.42" rx="1.6" ry="4.28"/>
	<ellipse transform="matrix(0.866 -0.5 0.5 0.866 -16.7929 57.9009)" class="st1" cx="99.65" cy="60.29" rx="1.6" ry="4.28"/>
</g>
<g>
	<path class="st1" d="M76.35,135.58c13.6-21.22-11.2-28.07-11.2-28.07l-64.11-0.29v57.43l65.2-0.24
		C90.94,155.93,76.35,135.58,76.35,135.58z M67.35,150.95c-0.97,0.99-2.33,1.6-3.83,1.6H13.04v-10.87h50.48c3,0,5.44,2.42,5.44,5.44
		C68.96,148.62,68.34,149.98,67.35,150.95z M67.47,128.44c-0.97,0.99-2.33,1.6-3.85,1.6H13.16v-10.89h50.46
		c3.02,0,5.45,2.44,5.45,5.44C69.07,126.11,68.46,127.47,67.47,128.44z"/>
	<rect x="95.03" y="108.03" class="st1" width="12.04" height="55.91"/>
	<polygon class="st1" points="135.35,119.41 135.35,129.67 179.8,129.67 179.8,141.72 135.35,141.72 135.35,163.65 123.32,163.65 
		123.32,119.41 123.23,119.41 123.23,107.38 202.21,107.38 202.21,119.41 	"/>
	<path class="st1" d="M265.23,151.91h-46.92v0.07h46.93C265.25,151.96,265.23,151.93,265.23,151.91z M277.26,129.7h7.41
		c-1.19-0.27-2.42-0.43-3.7-0.43S278.45,129.43,277.26,129.7z M235.07,140.75c0.58,0,1.14-0.03,1.7-0.09h-3.41
		C233.92,140.71,234.49,140.75,235.07,140.75z"/>
	<path class="st1" d="M281.4,163.21h1.7c-0.56,0.09-1.12,0.14-1.7,0.14c-0.14,0.02-0.29,0.02-0.43,0.02c-0.7,0-1.38-0.05-2.05-0.14
		L281.4,163.21z"/>
	<path class="st1" d="M265.25,151.98h-46.93v-0.07h46.92C265.23,151.93,265.25,151.96,265.25,151.98z"/>
	<path class="st1" d="M234.96,118.06V118c-2.78,0.36-4.89,2.71-4.89,5.57c0,1.57,0.63,2.98,1.65,4c1.02,1.02,2.44,1.65,4,1.65h48.57
		c0.55,0,1.09,0.07,1.6,0.2c7.04,2.01,12.19,8.59,12.19,16.41c0,6.08-3.12,11.44-7.82,14.45h-0.03l-0.05,0.05
		c-2.49,1.35-5.03,2.05-7.14,2.39c-0.41,0.07-0.82,0.12-1.19,0.17c-0.55,0.05-1.04,0.1-1.5,0.12c-1.18,0.07-2.03,0.03-2.4,0h-59.37
		v-11.59h0.19v0.07h62.82c0.09,0,0.19,0,0.27-0.02c0.17,0,0.34-0.02,0.49-0.05c1.14-0.14,2.16-0.63,2.98-1.35
		c0.12-0.12,0.24-0.22,0.34-0.34c0.72-0.75,1.23-1.7,1.45-2.76c0.03-0.15,0.07-0.31,0.07-0.48c0.03-0.22,0.05-0.44,0.05-0.66
		c0-1.57-0.63-2.97-1.65-4c-1.04-1.02-2.44-1.65-4-1.65H233.8c-8.42-0.87-14.98-8.11-14.98-16.92c0-8.67,6.34-15.82,14.55-16.87
		h1.58l2.59-0.02c-0.66-0.09-1.35-0.14-2.04-0.14c-0.19,0-0.37,0-0.55,0.02v-0.05h63.28v11.86H234.96z"/>
	<path class="st1" d="M281.4,151.91v0.05c-0.09,0.02-0.19,0.02-0.27,0.02h-62.82v-0.07H281.4z"/>
	<path class="st1" d="M278.93,163.23l2.47-0.02v0.14c-0.14,0.02-0.29,0.02-0.43,0.02C280.28,163.36,279.6,163.31,278.93,163.23z"/>
</g>
<rect x="87.85" y="183.26" class="st2" width="123.57" height="35.68"/>
<text transform="matrix(1 0 0 1 102.3672 198.3961)" class="st1 st3 st4 st5">GROUP</text>
</svg>
